# File created by Blade
# Date/Time:  Thu Jan 22 16:16:06 2015
# Frame Rate: 120.000 fps
#------------------------------------------------------
:FULLY-SPECIFIED
:DEGREES
1157
root -1.457230 36.043753 -2.762415 1.714552 -8.098016 3.576930
RightUpLeg -7.895817 8.543013 -20.621256
RightLeg 7.819002 -0.000000 -0.000000
RightFoot -9.856976 -3.143112 27.628211
RightToeBase 13.380131 -0.000000 -0.000000
LeftUpLeg -2.407619 3.831797 21.485949
LeftLeg 4.129665 -0.000000 -0.000000
LeftFoot 14.206012 21.280453 -31.465068
LeftToeBase 0.722926 -0.000000 -0.000000
Spine 30.287636 -2.348398 1.900754
RightShoulder 8.100481 -14.312489 -26.417208
RightArm 37.883499 -13.172349 46.468545
RightForeArm 1.963750 -0.000000 50.129230
RightHand 10.929931 -0.000000 -10.658274
RightHandThumb1 -24.326973 -0.000000 -32.862282
LeftShoulder -20.476213 33.107045 2.663963
LeftArm 55.010935 -0.300680 -54.105534
LeftForeArm 40.971685 -0.000000 47.382801
LeftHand -16.950601 -0.000000 0.081960
LeftHandThumb1 -26.253704 0.000000 33.147579
Head -30.491604 9.459460 -14.346267
1158
root -1.585880 36.100986 -2.721445 1.566500 -7.912888 3.870672
RightUpLeg -7.565141 8.206689 -20.652314
RightLeg 7.703743 -0.000000 -0.000000
RightFoot -9.792819 -3.118859 27.395917
RightToeBase 13.388316 -0.000000 -0.000000
LeftUpLeg -2.315678 3.943558 21.307104
LeftLeg 3.864678 -0.000000 -0.000000
LeftFoot 15.100181 21.730804 -31.273695
LeftToeBase 1.832508 -0.000000 -0.000000
Spine 30.120464 -2.238613 1.866535
RightShoulder 7.731039 -14.470103 -26.349994
RightArm 37.085765 -12.955121 46.415741
RightForeArm 2.811711 -0.000000 49.594536
RightHand 10.878156 -0.000000 -10.392427
RightHandThumb1 -24.326973 -0.000000 -32.862282
LeftShoulder -20.791699 33.174254 2.404755
LeftArm 54.697453 -0.941349 -54.440593
LeftForeArm 40.600675 -0.000000 46.975802
LeftHand -16.673778 -0.000000 -0.353570
LeftHandThumb1 -26.253704 0.000000 33.147579
Head -30.576086 9.161160 -14.406645
1159
root -1.711061 36.153978 -2.689369 1.461316 -7.798105 4.144218
RightUpLeg -7.360486 7.879032 -20.680380
RightLeg 7.668212 -0.000000 -0.000000
RightFoot -9.710539 -3.048540 27.115660
RightToeBase 13.318289 -0.000000 -0.000000
LeftUpLeg -2.228249 4.008678 21.129548
LeftLeg 3.595924 -0.000000 -0.000000
LeftFoot 15.864092 22.274894 -31.066250
LeftToeBase 2.845360 -0.000000 -0.000000
Spine 29.902883 -2.095830 1.825877
RightShoulder 7.440873 -14.615532 -26.362391
RightArm 36.282028 -12.707962 46.420420
RightForeArm 3.569481 -0.000000 49.031687
RightHand 10.830342 -0.000000 -10.277095
RightHandThumb1 -24.326973 -0.000000 -32.862282
LeftShoulder -21.122348 33.272666 2.115321
LeftArm 54.393390 -1.550845 -54.655253
LeftForeArm 40.670527 -0.000000 46.504263
LeftHand -16.669255 -0.000000 -0.199621
LeftHandThumb1 -26.253704 0.000000 33.147579
Head -30.613924 9.072993 -14.480470
1160
root -1.836416 36.204057 -2.656488 1.345760 -7.674050 4.384583
RightUpLeg -7.116694 7.654200 -20.678329
RightLeg 7.600061 -0.000000 -0.000000
RightFoot -9.680670 -3.090606 26.861202
RightToeBase 13.166225 -0.000000 -0.000000
LeftUpLeg -2.154843 3.938903 20.961277
LeftLeg 3.386760 -0.000000 -0.000000
LeftFoot 16.396374 22.954746 -30.951449
LeftToeBase 3.963145 -0.000000 -0.000000
Spine 29.707057 -1.942159 1.792264
RightShoulder 7.128176 -14.640109 -26.338988
RightArm 35.405709 -12.539720 46.375977
RightForeArm 4.541043 -0.000000 48.443979
RightHand 10.796375 -0.000000 -9.871912
RightHandThumb1 -24.326973 -0.000000 -32.862282
LeftShoulder -21.403666 33.273779 1.934423
LeftArm 54.011422 -2.129255 -54.922838
LeftForeArm 40.627729 -0.000000 46.096020
LeftHand -16.684057 -0.000000 -0.264510
LeftHandThumb1 -26.253704 0.000000 33.147579
Head -30.636660 8.755030 -14.481639
1161
root -1.954819 36.252848 -2.623412 1.216540 -7.536423 4.608215
RightUpLeg -6.870865 7.378564 -20.667515
RightLeg 7.563268 -0.000000 -0.000000
RightFoot -9.640250 -3.057110 26.676428
RightToeBase 13.108164 -0.000000 -0.000000
LeftUpLeg -2.186723 4.148366 20.786810
LeftLeg 3.419082 -0.000000 -0.000000
LeftFoot 16.884369 23.307086 -30.699343
LeftToeBase 5.222102 -0.000000 -0.000000
Spine 29.521482 -1.818571 1.773853
RightShoulder 6.845962 -14.674058 -26.356548
RightArm 34.545795 -12.355252 46.321725
RightForeArm 5.250389 0.000000 47.815906
RightHand 10.717873 0.000000 -9.481408
RightHandThumb1 -24.326973 -0.000000 -32.862282
LeftShoulder -21.643062 33.341209 1.767488
LeftArm 53.643686 -2.742969 -55.247972
LeftForeArm 40.704889 -0.000000 45.681786
LeftHand -16.733051 -0.000000 -0.235260
LeftHandThumb1 -26.253704 0.000000 33.147579
Head -30.628517 8.535215 -14.512008
1162
root -2.064132 36.300139 -2.595032 1.117786 -7.379873 4.849570
RightUpLeg -6.661226 7.056892 -20.692302
RightLeg 7.536693 -0.000000 -0.000000
RightFoot -9.582475 -3.014553 26.478902
RightToeBase 13.091733 -0.000000 -0.000000
LeftUpLeg -2.241200 4.121192 20.544605
LeftLeg 3.407959 -0.000000 -0.000000
LeftFoot 17.031203 23.950312 -30.517737
LeftToeBase 6.738818 -0.000000 -0.000000
Spine 29.312724 -1.747586 1.703641
RightShoulder 6.583707 -14.706011 -26.367994
RightArm 33.716029 -12.143633 46.214170
RightForeArm 5.972032 -0.000000 47.175807
RightHand 10.627331 -0.000000 -9.190008
RightHandThumb1 -24.326973 -0.000000 -32.862282
LeftShoulder -21.974671 33.453284 1.562478
LeftArm 53.389295 -3.370661 -55.560405
LeftForeArm 40.609927 -0.000000 45.246167
LeftHand -16.770222 -0.000000 -0.066507
LeftHandThumb1 -26.253704 0.000000 33.147579
Head -30.651896 8.331170 -14.532358
1163
root -2.166213 36.347915 -2.548938 0.868789 -7.414135 5.176456
RightUpLeg -6.369895 7.033910 -20.817957
RightLeg 7.495144 -0.000000 -0.000000
RightFoot -9.582603 -3.010133 26.273034
RightToeBase 13.005429 -0.000000 -0.000000
LeftUpLeg -2.041917 4.247365 20.176619
LeftLeg 3.381989 -0.000000 -0.000000
LeftFoot 17.158463 24.607995 -30.152857
LeftToeBase 8.068259 -0.000000 -0.000000
Spine 29.259505 -1.438151 1.513918
RightShoulder 6.279038 -14.761833 -26.314832
RightArm 32.917061 -11.916818 46.042804
RightForeArm 6.632872 -0.000000 46.514601
RightHand 10.594660 -0.000000 -8.757406
RightHandThumb1 -24.326973 -0.000000 -32.862282
LeftShoulder -22.221146 33.517070 1.435880
LeftArm 53.115077 -4.036064 -55.884355
LeftForeArm 40.658515 -0.000000 44.783101
LeftHand -16.642425 -0.000000 -0.069367
LeftHandThumb1 -26.253704 0.000000 33.147579
Head -30.690842 8.067578 -14.489663
1164
root -2.256844 36.392301 -2.520759 0.742129 -7.175125 5.431560
RightUpLeg -6.101496 6.707011 -20.889303
RightLeg 7.475999 -0.000000 -0.000000
RightFoot -9.561617 -2.984644 26.157723
RightToeBase 13.007601 -0.000000 -0.000000
LeftUpLeg -2.231608 4.169678 19.831097
LeftLeg 3.650828 -0.000000 -0.000000
LeftFoot 16.988260 25.213894 -29.847080
LeftToeBase 9.559862 -0.000000 -0.000000
Spine 29.092899 -1.456953 1.433364
RightShoulder 6.020383 -14.842275 -26.367117
RightArm 32.143470 -11.643186 45.857188
RightForeArm 7.202920 -0.000000 45.865583
RightHand 10.359906 0.000000 -8.604844
RightHandThumb1 -24.326973 -0.000000 -32.862282
LeftShoulder -22.457955 33.535402 1.329362
LeftArm 52.805023 -4.665320 -56.272941
LeftForeArm 40.540940 0.000000 44.326109
LeftHand -16.736647 -0.000000 -0.300179
LeftHandThumb1 -26.253704 0.000000 33.147579
Head -30.723689 7.857707 -14.561480
1165
root -2.347038 36.434557 -2.495006 0.619547 -7.029678 5.691685
RightUpLeg -5.883630 6.561543 -20.969737
RightLeg 7.455035 -0.000000 -0.000000
RightFoot -9.602190 -3.067268 26.006648
RightToeBase 13.038028 -0.000000 -0.000000
LeftUpLeg -2.434624 4.284491 19.450577
LeftLeg 4.018403 -0.000000 -0.000000
LeftFoot 16.551648 25.846726 -29.624683
LeftToeBase 11.412343 -0.000000 -0.000000
Spine 28.931982 -1.370998 1.297682
RightShoulder 5.747259 -15.073671 -26.396179
RightArm 31.515262 -11.238872 45.674968
RightForeArm 7.898837 -0.000000 45.166118
RightHand 10.255183 0.000000 -8.600848
RightHandThumb1 -24.326973 -0.000000 -32.862282
LeftShoulder -22.726124 33.610510 1.196616
LeftArm 52.587336 -5.377115 -56.630066
LeftForeArm 40.507593 -0.000000 43.845288
LeftHand -16.625367 -0.000000 -0.298135
LeftHandThumb1 -26.253704 0.000000 33.147579
Head -30.789608 7.610972 -14.550392
1166
root -2.426850 36.476204 -2.468078 0.468401 -6.830773 5.987197
RightUpLeg -5.603263 6.390607 -21.102424
RightLeg 7.413172 -0.000000 -0.000000
RightFoot -9.644454 -3.161755 25.878611
RightToeBase 13.085201 -0.000000 -0.000000
LeftUpLeg -2.696548 4.268401 18.983085
LeftLeg 4.559650 -0.000000 -0.000000
LeftFoot 15.859380 26.366575 -29.258009
LeftToeBase 13.085346 -0.000000 -0.000000
Spine 28.816716 -1.346329 1.106755
RightShoulder 5.481444 -15.265841 -26.423773
RightArm 30.859103 -10.810869 45.491737
RightForeArm 8.417166 -0.000000 44.458261
RightHand 10.181470 -0.000000 -8.496601
RightHandThumb1 -24.326973 -0.000000 -32.862282
LeftShoulder -23.022117 33.632604 1.045002
LeftArm 52.391134 -6.067508 -56.920537
LeftForeArm 40.656975 -0.000000 43.378415
LeftHand -16.657184 0.000000 -0.388444
LeftHandThumb1 -26.253704 0.000000 33.147579
Head -30.892690 7.390812 -14.530501
1167
root -2.495313 36.514955 -2.446058 0.355092 -6.598122 6.278978
RightUpLeg -5.328303 6.288623 -21.264704
RightLeg 7.320396 -0.000000 -0.000000
RightFoot -9.695519 -3.314681 25.849277
RightToeBase 13.068931 -0.000000 -0.000000
LeftUpLeg -3.082687 4.258574 18.464302
LeftLeg 5.295688 -0.000000 -0.000000
LeftFoot 14.968564 26.621853 -28.479136
LeftToeBase 14.817193 -0.000000 -0.000000
Spine 28.660353 -1.356680 0.935350
RightShoulder 5.228341 -15.428390 -26.486276
RightArm 30.153613 -10.355555 45.351849
RightForeArm 9.024301 -0.000000 43.743132
RightHand 10.093127 -0.000000 -8.261215
RightHandThumb1 -24.326973 -0.000000 -32.862282
LeftShoulder -23.227730 33.626356 0.943103
LeftArm 52.152217 -6.781493 -57.241513
LeftForeArm 40.807399 -0.000000 42.902396
LeftHand -16.646827 -0.000000 -0.333939
LeftHandThumb1 -26.253704 0.000000 33.147579
Head -30.963110 7.136783 -14.549427
1168
root -2.558222 36.553810 -2.415797 0.165496 -6.371975 6.582787
RightUpLeg -4.985531 6.222371 -21.433489
RightLeg 7.249419 -0.000000 -0.000000
RightFoot -9.750695 -3.504614 25.764401
RightToeBase 13.014099 -0.000000 -0.000000
LeftUpLeg -3.407887 4.144358 17.887469
LeftLeg 6.179088 -0.000000 -0.000000
LeftFoot 13.681385 26.636569 -27.742172
LeftToeBase 16.299770 -0.000000 -0.000000
Spine 28.599412 -1.359504 0.737632
RightShoulder 4.917193 -15.600960 -26.516913
RightArm 29.533556 -9.892260 45.150539
RightForeArm 9.590235 -0.000000 42.987064
RightHand 9.996119 -0.000000 -8.164528
RightHandThumb1 -24.326973 -0.000000 -32.862282
LeftShoulder -23.424367 33.617297 0.852436
LeftArm 51.949894 -7.545040 -57.600130
LeftForeArm 40.832722 -0.000000 42.429636
LeftHand -16.702540 -0.000000 -0.843633
LeftHandThumb1 -26.253704 0.000000 33.147579
Head -31.093441 6.863477 -14.564694
1169
root -2.614438 36.588205 -2.390787 0.018266 -6.101376 6.860698
RightUpLeg -4.686214 6.146862 -21.590165
RightLeg 7.224134 -0.000000 -0.000000
RightFoot -9.863405 -3.724776 25.729592
RightToeBase 12.999288 -0.000000 -0.000000
LeftUpLeg -3.897402 4.098093 17.281884
LeftLeg 7.388834 -0.000000 -0.000000
LeftFoot 12.083500 26.197512 -26.945083
LeftToeBase 17.195917 -0.000000 -0.000000
Spine 28.483027 -1.391624 0.583327
RightShoulder 4.570313 -15.779471 -26.558681
RightArm 28.946728 -9.451719 44.922018
RightForeArm 10.078272 -0.000000 42.181355
RightHand 9.882468 -0.000000 -8.184829
RightHandThumb1 -24.326973 -0.000000 -32.862282
LeftShoulder -23.563591 33.592163 0.770899
LeftArm 51.754444 -8.312254 -57.905166
LeftForeArm 40.908468 0.000000 41.905239
LeftHand -16.669039 0.000000 -0.626337
LeftHandThumb1 -26.253704 0.000000 33.147579
Head -31.161460 6.614571 -14.628833
